<svg width="734" height="640" viewBox="0 0 734 640" fill="none" xmlns="http://www.w3.org/2000/svg" xmlns:xlink="http://www.w3.org/1999/xlink">
<rect width="734" height="640" fill="url(#pattern0)"/>
<defs>
<pattern id="pattern0" patternContentUnits="objectBoundingBox" width="1" height="1">
<use xlink:href="#image0_1_86" transform="translate(-0.00408719) scale(0.0013624 0.0015625)"/>
</pattern>
<image id="image0_1_86" width="740" height="640" xlink:href="img/home.png"/>
</defs>
<path d="M222.01 532L445.071 540L514.98 526.3V548L445.778 567.7L222.01 556.7V532Z" fill="#3595F6" fill-opacity="0.75"/>
<path d="M223.02 531V506L445.576 509.3L515.99 506V526L445.98 539L223.02 531Z" fill="#3595F6" fill-opacity="0.75"/>
<path d="M223.02 505V480H446.283H515.99V503L447.294 510L223.02 505Z" fill="#3595F6" fill-opacity="0.75"/>
<path d="M223.02 481V456L446.586 452.3L514.98 459V481H446.283" fill="#3595F6" fill-opacity="0.75"/>
<path d="M223.02 455V429L446.788 425.7L515.99 436.7V458L446.283 451.3L223.02 455Z" fill="#3595F6" fill-opacity="0.75"/>
<path d="M222.01 428V404.3L445.273 392L517 415V436.3L445.273 424L222.01 428Z" fill="#3595F6" fill-opacity="0.75"/>
<path d="M222.01 406V381L446.485 364.7L517 393.3V414L445.98 392.3L222.01 406Z" fill="#3595F6" fill-opacity="0.75"/>
<path d="M222.01 381V356L446.788 335.7L517 372.3V393L444.263 364.3L222.01 381Z" fill="#3595F6" fill-opacity="0.75"/>
<path d="M222.01 355V331L447.294 306.3L517 350.3V372L446.99 334L222.01 355Z" fill="#3595F6" fill-opacity="0.75"/>
<path d="M222.01 330V306L446.788 277.3L517 328.3V349L445.98 306.7L222.01 330Z" fill="#3595F6" fill-opacity="0.75"/>
<path d="M221 306V282L445.576 249L517 308.3V328L446.283 277.3L221 306Z" fill="#3595F6" fill-opacity="0.75"/>
<path d="M222.01 281V257L445.475 222L515.99 286V307L446.586 248.7L222.01 281Z" fill="#3595F6" fill-opacity="0.75"/>
<path d="M222.01 257V232L446.586 194L515.99 264.3V285L446.283 221L222.01 257Z" fill="#3595F6" fill-opacity="0.75"/>
<path d="M222.01 231V206L445.071 162.3L515.99 241.3V264L446.283 190.7L222.01 231Z" fill="#3595F6" fill-opacity="0.75"/>
<path d="M223.02 207V182L445.273 134L515.99 219V242L444.566 162.7L223.02 207Z" fill="#3595F6" fill-opacity="0.75"/>
<path d="M222.01 182V157L444.061 105L515.99 197.3V220L445.576 133.7L222.01 182Z" fill="#3595F6" fill-opacity="0.75"/>
<path d="M222.01 157V131L446.283 74.3L515.99 176V197L445.98 105.3L222.01 157Z" fill="#3595F6" fill-opacity="0.75"/>
</svg>